<svg xmlns="http://www.w3.org/2000/svg" xmlns:xlink="http://www.w3.org/1999/xlink" version="1.1" width="256" height="256" viewBox="0 0 256 256" xml:space="preserve">

<defs>
</defs>
<g style="stroke: none; stroke-width: 0; stroke-dasharray: none; stroke-linecap: butt; stroke-linejoin: miter; stroke-miterlimit: 10; fill: none; fill-rule: nonzero; opacity: 1;" transform="translate(1.4065934065934016 1.4065934065934016) scale(2.81 2.81)" >
	<path d="M 1 43.985 l 35.531 -28.717 v 10.716 h 35.747 C 81.513 25.985 89 33.471 89 42.707 v 29.996 v 2.029 c 0 -7.11 -5.764 -12.875 -12.875 -12.875 l -39.594 0.129 v 10.716 L 1 43.985 z" style="stroke: none; stroke-width: 1; stroke-dasharray: none; stroke-linecap: butt; stroke-linejoin: miter; stroke-miterlimit: 10; fill: rgb(255,206,0); fill-rule: nonzero; opacity: 1;" transform=" matrix(1 0 0 1 0 0) " stroke-linecap="round" />
	<line x1="1.4874999999999972" y1="-0.0045000000000001705" x2="-1.4874999999999972" y2="0.0045000000000001705" style="stroke: none; stroke-width: 1; stroke-dasharray: none; stroke-linecap: butt; stroke-linejoin: miter; stroke-miterlimit: 10; fill: rgb(255,255,255); fill-rule: nonzero; opacity: 1;" transform=" matrix(1 0 0 1 0 0) "/>
	<path d="M 45.752 62.973 c -0.551 0 -0.998 -0.445 -1 -0.997 s 0.444 -1.001 0.997 -1.003 l 2.976 -0.01 c 0.001 0 0.002 0 0.003 0 c 0.551 0 0.998 0.445 1 0.997 s -0.444 1.001 -0.997 1.003 l -2.975 0.01 C 45.754 62.973 45.753 62.973 45.752 62.973 z" style="stroke: none; stroke-width: 1; stroke-dasharray: none; stroke-linecap: butt; stroke-linejoin: miter; stroke-miterlimit: 10; fill: rgb(0,0,0); fill-rule: nonzero; opacity: 1;" transform=" matrix(1 0 0 1 0 0) " stroke-linecap="round" />
	<path d="M 89 75.731 c -0.553 0 -1 -0.447 -1 -1 c 0 -6.548 -5.327 -11.874 -11.875 -11.874 l -22.451 0.086 c -0.001 0 -0.003 0 -0.004 0 c -0.551 0 -0.998 -0.445 -1 -0.996 c -0.002 -0.553 0.444 -1.002 0.996 -1.004 l 22.455 -0.086 c 5.031 0 9.445 2.689 11.879 6.705 V 42.707 c 0 -8.669 -7.053 -15.722 -15.722 -15.722 H 36.531 c -0.552 0 -1 -0.448 -1 -1 v -8.622 L 2.591 43.985 l 32.94 26.623 v -8.622 c 0 -0.55 0.444 -0.997 0.995 -1 l 4.258 -0.023 c 0.002 0 0.003 0 0.005 0 c 0.55 0 0.997 0.444 1 0.994 c 0.003 0.553 -0.442 1.003 -0.995 1.006 l -3.263 0.018 v 9.722 c 0 0.386 -0.221 0.736 -0.569 0.902 c -0.349 0.165 -0.761 0.118 -1.06 -0.125 L 0.372 44.763 C 0.137 44.573 0 44.288 0 43.985 s 0.137 -0.588 0.372 -0.778 l 35.531 -28.717 c 0.299 -0.242 0.711 -0.29 1.06 -0.125 c 0.348 0.166 0.569 0.517 0.569 0.902 v 9.716 h 34.748 C 82.05 24.985 90 32.935 90 42.707 v 32.025 C 90 75.284 89.553 75.731 89 75.731 z" style="stroke: none; stroke-width: 1; stroke-dasharray: none; stroke-linecap: butt; stroke-linejoin: miter; stroke-miterlimit: 10; fill: rgb(0,0,0); fill-rule: nonzero; opacity: 1;" transform=" matrix(1 0 0 1 0 0) " stroke-linecap="round" />
</g>
</svg>