<svg xmlns="http://www.w3.org/2000/svg" xmlns:xlink="http://www.w3.org/1999/xlink" version="1.1" width="256" height="256" viewBox="0 0 256 256" xml:space="preserve">

<defs>
</defs>
<g style="stroke: none; stroke-width: 0; stroke-dasharray: none; stroke-linecap: butt; stroke-linejoin: miter; stroke-miterlimit: 10; fill: none; fill-rule: nonzero; opacity: 1;" transform="translate(1.4065934065934016 1.4065934065934016) scale(2.81 2.81)" >
	<path d="M 89 43.985 L 53.469 15.268 v 10.716 H 17.722 C 8.487 25.985 1 33.471 1 42.707 v 29.996 v 2.029 c 0 -7.11 5.764 -12.875 12.875 -12.875 l 39.594 0.129 v 10.716 L 89 43.985 z" style="stroke: none; stroke-width: 1; stroke-dasharray: none; stroke-linecap: butt; stroke-linejoin: miter; stroke-miterlimit: 10; fill: rgb(255,206,0); fill-rule: nonzero; opacity: 1;" transform=" matrix(1 0 0 1 0 0) " stroke-linecap="round" />
	<line x1="-1.4874999999999972" y1="-0.0045000000000001705" x2="1.4874999999999972" y2="0.0045000000000001705" style="stroke: none; stroke-width: 1; stroke-dasharray: none; stroke-linecap: butt; stroke-linejoin: miter; stroke-miterlimit: 10; fill: rgb(255,255,255); fill-rule: nonzero; opacity: 1;" transform=" matrix(1 0 0 1 0 0) "/>
	<path d="M 44.248 62.973 c -0.001 0 -0.002 0 -0.003 0 l -2.975 -0.01 c -0.552 -0.002 -0.999 -0.451 -0.997 -1.003 s 0.449 -0.997 1 -0.997 c 0.001 0 0.002 0 0.003 0 l 2.975 0.01 c 0.552 0.002 0.999 0.451 0.997 1.003 S 44.798 62.973 44.248 62.973 z" style="stroke: none; stroke-width: 1; stroke-dasharray: none; stroke-linecap: butt; stroke-linejoin: miter; stroke-miterlimit: 10; fill: rgb(0,0,0); fill-rule: nonzero; opacity: 1;" transform=" matrix(1 0 0 1 0 0) " stroke-linecap="round" />
	<path d="M 1 75.731 c -0.552 0 -1 -0.447 -1 -1 V 42.707 c 0 -9.772 7.95 -17.722 17.722 -17.722 h 34.747 v -9.716 c 0 -0.385 0.222 -0.736 0.569 -0.902 c 0.346 -0.166 0.759 -0.118 1.06 0.125 l 35.531 28.717 C 89.863 43.397 90 43.683 90 43.985 s -0.137 0.588 -0.371 0.778 L 54.098 73.479 c -0.301 0.243 -0.713 0.291 -1.06 0.125 c -0.348 -0.166 -0.569 -0.517 -0.569 -0.902 V 62.98 l -3.263 -0.018 c -0.552 -0.003 -0.997 -0.453 -0.994 -1.006 c 0.003 -0.552 0.462 -1.006 1.006 -0.994 l 4.257 0.023 c 0.55 0.003 0.994 0.45 0.994 1 v 8.622 l 32.94 -26.623 l -32.94 -26.623 v 8.623 c 0 0.552 -0.447 1 -1 1 H 17.722 C 9.053 26.985 2 34.038 2 42.707 v 24.855 c 2.434 -4.016 6.846 -6.704 11.875 -6.704 l 22.459 0.086 c 0.552 0.002 0.998 0.451 0.996 1.004 c -0.002 0.551 -0.449 0.996 -1 0.996 c -0.001 0 -0.002 0 -0.004 0 l -22.456 -0.086 C 7.327 62.857 2 68.184 2 74.731 C 2 75.284 1.552 75.731 1 75.731 z" style="stroke: none; stroke-width: 1; stroke-dasharray: none; stroke-linecap: butt; stroke-linejoin: miter; stroke-miterlimit: 10; fill: rgb(0,0,0); fill-rule: nonzero; opacity: 1;" transform=" matrix(1 0 0 1 0 0) " stroke-linecap="round" />
</g>
</svg>